# xmcd
# 
# Track frame offsets:
#     150
#     17652
#     34817
#     55130
#     71825
#     90860
#     109712
#     125845
#     142265
#     161152
#     178237
#     200725
#     223775
#     243982
#     258905
#     272590
# 
# Disc length: 3914
# 
# Revision: 6
# Processed by: cddbd v1.5.2PL0 Copyright (c) Steve Scherf et al.
# Submitted via: fre:ac v1.0.17
# 
DISCID=f40f4810
DTITLE=テレサテン - 永遠の歌声～オリジナル曲の全て
DYEAR=95
DGENRE=ｊ歌謡曲
TTITLE0=つぐない
TTITLE1=愛人
TTITLE2=別れの予感
TTITLE3=夕凪
TTITLE4=悲しい自由
TTITLE5=時の流れに身をまかせ
TTITLE6=夜来香
TTITLE7=何日君再来
TTITLE8=ジェル・ミーナの歩いた道
TTITLE9=空港
TTITLE10=あなたとともに歩いていく
TTITLE11=香港
TTITLE12=涙の条件
TTITLE13=夜のフェリーポート
TTITLE14=今夜かしら明日かしら
TTITLE15=恋人たちの神話
EXTD=
EXTT0=
EXTT1=
EXTT2=
EXTT3=
EXTT4=
EXTT5=
EXTT6=
EXTT7=
EXTT8=
EXTT9=
EXTT10=
EXTT11=
EXTT12=
EXTT13=
EXTT14=
EXTT15=
PLAYORDER=
